<?xml version="1.0" standalone="no"?>
<!DOCTYPE svg PUBLIC "-//W3C//DTD SVG 20010904//EN"
 "http://www.w3.org/TR/2001/REC-SVG-20010904/DTD/svg10.dtd">
<svg version="1.0" xmlns="http://www.w3.org/2000/svg"
 width="463.000000pt" height="517.000000pt" viewBox="0 0 463.000000 517.000000"
 preserveAspectRatio="xMidYMid meet">

<g transform="translate(0.000000,517.000000) scale(0.100000,-0.100000)"
fill="#000000" stroke="none">
<path d="M3765 5143 c-70 -16 -129 -64 -190 -155 -16 -23 -30 -44 -30 -45 0
-1 -73 -7 -160 -12 -110 -7 -192 -19 -260 -36 -55 -14 -137 -32 -181 -40 -46
-8 -142 -39 -220 -71 -77 -30 -159 -62 -184 -70 -55 -18 -90 -35 -201 -96 -48
-27 -93 -48 -102 -48 -8 0 -20 -6 -26 -14 -6 -7 -28 -16 -49 -20 -20 -4 -62
-25 -92 -46 -30 -22 -69 -46 -87 -55 -17 -8 -34 -19 -38 -25 -3 -5 -15 -10
-26 -10 -10 0 -19 -4 -19 -8 0 -5 -10 -14 -22 -20 -13 -7 -43 -28 -68 -47 -25
-19 -57 -40 -72 -46 -16 -6 -28 -15 -28 -20 0 -5 -6 -9 -13 -9 -7 0 -43 -25
-80 -55 -36 -30 -73 -55 -81 -55 -8 0 -26 -10 -39 -22 -113 -106 -138 -128
-147 -128 -5 0 -20 -10 -33 -22 -13 -13 -51 -48 -85 -78 -174 -157 -208 -188
-236 -218 -17 -19 -68 -73 -114 -121 -45 -48 -93 -101 -105 -118 -12 -17 -53
-67 -92 -111 -71 -81 -149 -186 -173 -232 -7 -14 -24 -39 -38 -57 -13 -17 -24
-34 -24 -37 0 -3 -25 -44 -55 -91 -30 -46 -55 -88 -55 -92 0 -11 -50 -105 -65
-123 -7 -8 -16 -32 -20 -53 -4 -21 -18 -53 -31 -73 -13 -19 -24 -42 -24 -50 0
-8 -6 -27 -14 -43 -8 -15 -22 -61 -32 -102 -9 -41 -25 -110 -36 -154 -28 -114
-34 -272 -14 -360 37 -165 72 -254 125 -324 52 -68 150 -161 170 -161 11 0 23
-5 26 -10 8 -12 102 -73 130 -84 85 -33 260 -64 415 -72 218 -12 605 47 780
119 72 29 128 46 155 47 17 0 45 9 63 20 18 11 39 20 47 20 8 0 65 25 127 56
62 30 127 62 143 69 17 8 46 21 65 30 52 24 96 49 132 77 18 14 43 28 55 32
11 4 27 13 33 21 7 8 20 15 30 15 9 0 34 14 55 30 47 38 32 38 -48 1 -82 -37
-121 -51 -312 -110 -405 -126 -863 -178 -1110 -127 -115 23 -297 91 -307 113
-5 12 -66 53 -78 53 -5 0 -15 9 -22 20 -7 11 -18 20 -25 20 -6 0 -29 21 -50
48 -21 26 -42 50 -46 53 -25 19 -95 203 -116 307 -15 74 -14 187 4 274 22 108
54 217 81 271 8 16 14 36 14 44 0 9 14 38 30 65 17 26 30 56 30 66 0 18 21 52
52 86 9 10 24 34 33 53 9 19 35 62 59 96 23 34 48 75 56 90 8 16 22 33 33 38
10 6 22 22 28 37 16 42 63 111 76 112 6 0 20 15 32 33 11 18 31 43 45 56 14
14 26 28 26 33 0 4 21 29 48 56 70 70 142 153 142 163 0 5 6 9 13 9 10 0 88
71 233 210 22 22 46 40 52 40 5 0 12 3 14 8 2 4 30 27 62 52 33 25 70 55 82
68 13 12 28 22 34 22 6 0 20 9 32 20 12 11 29 20 37 20 17 1 24 5 92 62 24 20
85 58 134 83 50 26 92 50 95 54 7 10 89 53 175 91 39 18 90 44 115 60 25 16
65 34 90 40 25 7 57 18 72 26 14 8 33 14 41 14 8 0 36 9 63 21 81 34 106 45
177 74 l67 28 79 -80 c43 -44 83 -82 88 -84 5 -2 24 -25 43 -51 18 -27 37 -48
42 -48 5 0 12 -10 17 -22 5 -13 21 -38 35 -57 14 -19 26 -40 26 -47 0 -6 7
-17 15 -24 8 -7 28 -40 45 -74 17 -33 37 -72 44 -86 8 -14 22 -50 31 -80 9
-30 25 -77 35 -105 10 -27 23 -72 28 -100 6 -27 21 -93 32 -145 19 -82 22
-126 22 -315 0 -201 -2 -231 -27 -345 -39 -183 -41 -187 -74 -280 -17 -46 -31
-91 -31 -101 0 -9 -14 -35 -31 -59 -18 -24 -40 -62 -51 -84 -10 -23 -27 -54
-37 -71 l-18 -30 -151 -3 -151 -3 -28 -39 c-15 -22 -35 -42 -44 -45 -9 -3 -28
-21 -43 -40 -16 -19 -34 -35 -42 -35 -7 0 -17 -6 -21 -14 -10 -19 -80 -66 -97
-66 -7 0 -24 -8 -37 -18 -58 -45 -242 -122 -336 -142 -54 -10 -99 -18 -101
-16 -2 2 12 14 30 27 18 13 38 28 43 35 6 6 33 29 60 50 56 43 58 45 131 106
28 24 98 81 154 128 57 47 136 113 176 148 40 34 77 62 81 62 4 0 22 11 38 25
l30 24 -237 1 -236 0 -31 -42 c-17 -23 -31 -47 -31 -53 0 -6 -20 -38 -45 -69
-25 -32 -45 -64 -45 -70 0 -7 -11 -23 -25 -36 -14 -13 -25 -27 -25 -32 0 -9
-59 -92 -87 -122 -10 -11 -27 -34 -38 -52 -11 -17 -38 -59 -61 -91 l-40 -60
-40 56 c-21 31 -44 67 -50 81 -6 14 -22 36 -36 50 -14 14 -29 36 -33 50 -4 14
-18 36 -31 49 -13 13 -24 30 -24 38 0 7 -7 16 -15 19 -8 4 -23 23 -32 43 -10
20 -27 46 -38 59 -11 13 -31 42 -45 66 -14 23 -38 59 -55 79 l-30 37 -229 0
c-195 0 -227 -2 -217 -14 7 -8 27 -22 46 -31 19 -9 35 -20 35 -24 0 -5 24 -27
52 -49 29 -22 63 -49 75 -61 12 -12 27 -21 33 -21 5 0 10 -4 10 -9 0 -10 60
-71 70 -71 7 0 30 -19 129 -108 27 -23 55 -42 65 -42 9 0 16 -4 16 -10 0 -5
19 -22 43 -39 23 -16 58 -45 78 -63 20 -18 45 -38 55 -44 11 -7 17 -14 14 -17
-5 -5 -150 24 -205 41 -49 16 -242 110 -250 121 -3 6 -13 11 -20 11 -16 0 -47
23 -74 53 -9 10 -30 25 -47 33 -17 8 -36 26 -42 39 -7 14 -18 25 -26 25 -7 0
-20 10 -29 23 -46 69 -41 67 -238 67 -161 0 -179 -2 -165 -15 8 -8 18 -25 22
-38 3 -12 23 -41 43 -63 20 -23 47 -60 61 -83 13 -22 28 -41 32 -41 11 0 118
-107 118 -119 0 -5 15 -16 33 -24 17 -9 39 -25 47 -36 8 -12 19 -21 24 -21 5
0 29 -17 54 -37 70 -58 221 -136 352 -181 160 -56 220 -65 437 -70 179 -3 215
-1 305 18 108 22 137 31 203 60 22 10 51 21 65 25 40 13 229 115 288 156 30
22 61 48 69 59 8 11 19 20 24 20 17 0 218 204 249 253 16 26 34 47 40 47 5 0
10 5 10 11 0 6 14 31 30 56 17 24 30 48 30 53 0 5 6 15 13 22 24 25 47 67 47
86 0 10 5 23 12 30 6 6 18 28 26 49 45 121 83 233 91 268 5 22 19 78 32 125
21 79 23 104 23 360 l0 275 -32 125 c-18 69 -43 158 -57 198 -14 41 -25 79
-25 85 0 6 -16 41 -35 78 -19 38 -35 75 -35 85 0 9 -13 33 -28 53 -16 20 -39
57 -51 84 -13 26 -27 47 -32 47 -5 0 -9 5 -9 11 0 5 -13 24 -30 42 -16 18 -30
40 -30 49 0 10 -13 24 -28 32 -16 8 -46 36 -67 63 -22 26 -55 62 -74 80 -24
23 -30 34 -20 36 67 18 356 69 399 70 55 2 55 2 58 -29 2 -18 12 -40 23 -50
10 -9 19 -21 19 -26 0 -5 16 -29 37 -53 59 -71 166 -96 270 -61 60 20 96 56
119 119 9 24 28 21 60 -8 15 -14 30 -25 34 -25 4 0 35 -27 69 -60 34 -33 66
-60 70 -60 5 0 17 -17 26 -37 10 -21 31 -55 46 -77 16 -21 29 -51 29 -65 0
-15 9 -51 19 -82 48 -135 48 -334 1 -490 -11 -35 -20 -76 -20 -90 0 -27 -13
-64 -55 -154 -13 -27 -27 -63 -31 -80 -4 -16 -23 -56 -41 -88 -19 -32 -43 -78
-54 -102 -11 -24 -35 -68 -54 -97 -19 -29 -35 -59 -35 -67 0 -25 57 38 84 93
14 28 39 74 56 101 16 28 46 81 65 119 20 38 42 78 50 90 8 11 15 30 15 43 0
12 13 50 28 85 61 135 91 268 98 434 6 143 -7 319 -26 338 -5 5 -10 18 -10 27
0 28 -39 106 -65 130 -13 13 -25 31 -25 40 0 17 -89 119 -104 119 -4 0 -18 9
-30 19 -63 57 -79 70 -106 81 -23 10 -32 22 -40 54 -13 52 -67 161 -99 199
-37 46 -149 83 -206 70z"/>
<path d="M1878 5060 c-48 -10 -116 -27 -150 -38 -35 -12 -79 -24 -98 -27 -36
-8 -203 -86 -230 -109 -8 -7 -35 -22 -60 -34 -25 -12 -72 -46 -105 -77 -33
-30 -65 -55 -71 -55 -5 0 -41 -34 -80 -77 -38 -42 -81 -89 -96 -105 -16 -16
-28 -33 -28 -38 0 -6 -15 -27 -34 -47 -18 -21 -41 -51 -50 -68 -10 -16 -28
-48 -42 -70 -13 -22 -35 -65 -50 -95 -26 -56 -29 -62 -64 -115 -11 -16 -20
-42 -20 -56 0 -15 -12 -52 -26 -83 -14 -32 -24 -59 -21 -62 3 -3 22 15 42 40
21 26 43 46 50 46 7 0 20 12 30 28 18 28 64 73 110 107 15 11 53 45 84 75 31
30 78 73 106 95 27 22 56 48 64 58 9 10 41 35 71 55 69 46 86 60 118 95 14 15
33 27 42 27 9 0 27 9 40 20 13 11 27 20 33 20 5 0 25 16 46 35 42 41 92 77
141 101 19 10 76 46 126 80 50 34 107 67 126 73 19 6 53 25 74 41 22 16 45 30
51 30 7 0 34 13 61 29 26 17 67 34 91 40 24 5 47 13 50 18 3 5 26 17 50 28 62
27 36 34 -144 34 -107 0 -175 -6 -237 -19z"/>
<path d="M2370 5021 c-19 -10 -51 -22 -70 -26 -19 -4 -58 -20 -86 -36 -28 -16
-56 -29 -62 -29 -5 0 -37 -15 -71 -34 -33 -19 -70 -37 -81 -41 -22 -7 -95 -52
-140 -86 -14 -11 -51 -32 -82 -48 -65 -32 -198 -121 -198 -132 0 -4 -16 -13
-35 -19 -19 -6 -35 -15 -35 -20 0 -5 -9 -12 -21 -15 -22 -7 -39 -20 -98 -72
-20 -18 -42 -33 -49 -33 -7 0 -15 -7 -18 -15 -4 -8 -12 -15 -20 -15 -7 0 -38
-24 -70 -52 -31 -29 -64 -57 -73 -62 -9 -5 -20 -15 -24 -23 -4 -7 -14 -13 -21
-13 -7 0 -26 -15 -43 -32 -33 -36 -124 -118 -130 -118 -6 0 -243 -238 -243
-244 0 -3 -20 -24 -44 -48 -36 -35 -45 -51 -50 -89 l-5 -46 49 47 c28 26 50
50 50 52 0 10 211 218 220 218 6 0 26 23 46 50 20 28 49 57 65 66 16 8 29 19
29 24 0 6 6 10 14 10 8 0 34 19 58 43 23 24 76 67 116 96 39 29 75 58 80 65 9
14 109 86 120 86 4 0 25 17 46 39 20 21 67 53 104 72 64 31 160 94 173 112 3
4 46 29 96 55 50 26 122 67 160 92 37 25 94 54 126 64 31 11 57 22 57 26 0 4
19 15 43 24 23 10 69 31 102 47 34 16 68 29 76 29 9 0 31 5 49 11 l33 12 -24
13 c-33 18 -78 16 -119 -5z"/>
<path d="M2515 4959 c-38 -17 -104 -46 -145 -64 -41 -19 -93 -39 -115 -46 -22
-7 -46 -18 -53 -26 -7 -7 -19 -13 -26 -13 -7 0 -24 -9 -38 -20 -14 -10 -63
-39 -110 -63 -46 -24 -118 -67 -160 -95 -42 -28 -105 -66 -140 -83 -65 -33
-119 -70 -151 -101 -10 -10 -24 -18 -32 -18 -7 0 -20 -6 -27 -13 -47 -44 -161
-137 -169 -137 -10 0 -19 -7 -104 -85 -33 -30 -66 -55 -74 -55 -8 0 -23 -9
-35 -21 -126 -124 -254 -250 -264 -261 -7 -7 -64 -64 -127 -126 -131 -128
-165 -175 -165 -229 l0 -37 30 29 c17 16 30 33 30 38 0 4 13 20 30 34 16 13
30 30 30 35 0 6 53 61 118 123 64 62 123 119 130 126 82 89 118 123 276 263
16 14 35 26 42 26 7 0 26 13 42 30 36 36 105 89 150 115 17 11 32 23 32 27 0
9 96 80 143 106 34 18 66 40 127 90 15 12 33 22 40 22 18 0 138 68 199 113 29
22 80 50 112 63 33 13 103 49 157 78 53 30 117 60 142 67 25 6 76 27 113 45
38 19 77 34 87 34 10 0 32 6 50 13 l31 14 -25 16 c-36 24 -71 20 -151 -14z"/>
<path d="M1728 3760 c-68 -84 -148 -209 -148 -231 0 -10 -4 -20 -8 -23 -16
-10 -60 -112 -72 -166 -7 -30 -19 -77 -27 -103 -8 -27 -13 -50 -12 -51 2 -2
32 -10 66 -18 56 -14 62 -14 67 1 7 19 49 79 71 102 8 9 15 21 15 27 0 6 12
23 28 39 15 15 44 49 65 75 21 26 70 81 110 123 40 41 77 81 83 88 6 6 23 22
38 34 32 28 33 36 4 51 -13 6 -41 23 -63 36 -54 34 -115 63 -145 70 -21 4 -32
-4 -72 -54z"/>
<path d="M2380 3791 c-50 -25 -170 -90 -178 -97 -8 -5 19 -44 31 -44 15 0 247
-241 247 -257 0 -6 14 -27 31 -45 17 -18 44 -55 60 -83 16 -27 40 -63 53 -78
l23 -29 62 13 c45 8 61 16 61 28 -1 28 -29 134 -44 166 -8 16 -31 68 -51 115
-21 46 -52 107 -71 134 -19 28 -34 55 -34 59 0 5 -14 22 -31 40 -17 17 -42 48
-55 69 -13 21 -30 38 -37 38 -6 -1 -37 -13 -67 -29z"/>
<path d="M2025 3552 c-107 -105 -245 -257 -262 -290 -8 -15 -22 -36 -32 -47
-9 -11 -25 -33 -35 -49 -21 -33 -11 -46 37 -46 15 0 35 -4 45 -9 9 -5 49 -21
87 -36 39 -14 101 -42 138 -61 114 -59 106 -58 204 -10 48 24 111 51 138 61
28 10 73 26 100 36 28 10 63 20 78 24 l28 6 -18 32 c-10 18 -21 34 -25 37 -4
3 -14 21 -22 40 -8 19 -35 60 -61 90 -74 87 -297 300 -315 300 -3 0 -41 -35
-85 -78z"/>
<path d="M1075 3068 c-4 -18 -9 -73 -12 -122 -5 -100 6 -157 44 -223 l24 -43
114 0 114 0 -7 53 c-8 60 -9 239 -2 312 l5 50 -136 3 -137 3 -7 -33z"/>
<path d="M2885 2890 l0 -210 106 0 105 0 25 43 c27 48 36 76 51 162 8 50 7 73
-9 135 l-19 75 -130 3 -129 3 0 -211z"/>
<path d="M1444 3079 c-2 -4 -7 -68 -10 -141 -4 -121 -3 -130 10 -103 24 51 54
128 65 173 7 23 16 42 21 42 6 0 10 4 10 8 0 12 -89 31 -96 21z"/>
<path d="M2718 3073 c-31 -5 -32 -6 -19 -31 34 -68 70 -151 75 -172 3 -14 12
-34 20 -45 14 -18 15 -9 11 91 -2 62 -7 124 -11 138 -6 27 -13 28 -76 19z"/>
<path d="M4048 3048 c-15 -18 -28 -38 -28 -45 0 -6 -7 -19 -16 -28 -9 -9 -14
-18 -12 -21 7 -6 90 106 86 117 -2 6 -16 -5 -30 -23z"/>
<path d="M1574 2933 c-49 -103 -82 -200 -84 -240 0 -10 29 -13 115 -13 l115 0
39 40 c21 22 44 40 50 40 6 0 21 12 34 26 12 14 38 35 57 45 19 11 53 34 76
52 l40 33 -35 16 c-39 18 -331 118 -344 118 -4 0 -33 -53 -63 -117z"/>
<path d="M2528 3032 c-26 -9 -50 -20 -54 -24 -4 -5 -14 -8 -22 -8 -8 0 -28 -6
-45 -13 -18 -8 -50 -19 -72 -26 -22 -7 -58 -20 -81 -29 l-41 -16 36 -25 c20
-13 62 -42 94 -63 31 -21 57 -43 57 -48 0 -5 11 -12 25 -16 14 -3 35 -20 47
-38 12 -17 27 -34 33 -38 5 -4 63 -8 129 -8 90 0 117 3 114 13 -3 6 -13 37
-23 67 -10 30 -26 73 -36 95 -10 22 -24 56 -31 75 -19 50 -61 120 -73 119 -5
0 -31 -8 -57 -17z"/>
<path d="M3976 2923 c-6 -14 -5 -15 5 -6 7 7 10 15 7 18 -3 3 -9 -2 -12 -12z"/>
<path d="M2780 1820 c-9 -6 -10 -10 -3 -10 6 0 15 5 18 10 8 12 4 12 -15 0z"/>
<path d="M2728 1794 c-16 -8 -28 -17 -28 -19 0 -11 19 -4 41 15 29 23 24 25
-13 4z"/>
<path d="M1651 671 c-10 -7 -12 -47 -9 -202 4 -218 7 -229 78 -293 55 -49 76
-56 176 -56 91 0 109 6 159 52 18 16 41 35 51 43 18 12 19 30 19 237 l0 223
-70 1 c-38 1 -75 0 -82 -3 -10 -4 -13 -50 -13 -198 0 -216 -3 -225 -65 -225
-61 0 -69 25 -75 240 l-5 185 -75 3 c-41 1 -81 -2 -89 -7z"/>
<path d="M2245 667 c-3 -7 -4 -131 -3 -277 l3 -265 78 -3 77 -3 0 281 0 280
-75 0 c-52 0 -77 -4 -80 -13z"/>
<path d="M2484 667 c-3 -8 -4 -41 -2 -73 l3 -59 77 -3 78 -3 2 -202 3 -202 80
0 80 0 3 203 2 202 81 0 80 0 -3 73 -3 72 -238 3 c-194 2 -238 0 -243 -11z"/>
</g>
</svg>
